<mxfile host="app.diagrams.net" modified="2021-09-15T08:28:01.155Z" agent="5.0 (Windows NT 10.0; Win64; x64) AppleWebKit/537.36 (KHTML, like Gecko) Chrome/93.0.4577.63 Safari/537.36" etag="1vXj1uQuFDiWrYlaPei7" version="15.2.7" type="github">
  <diagram id="bc1pMs-ueyKUFe9-j6o9" name="Page-1">
    <mxGraphModel dx="2249" dy="794" grid="1" gridSize="10" guides="1" tooltips="1" connect="1" arrows="1" fold="1" page="1" pageScale="1" pageWidth="827" pageHeight="1169" math="0" shadow="0">
      <root>
        <mxCell id="0" />
        <mxCell id="1" parent="0" />
        <mxCell id="WlmM7-1C6_T7BSEHohl4-1" value="" style="edgeStyle=orthogonalEdgeStyle;rounded=0;orthogonalLoop=1;jettySize=auto;html=1;" edge="1" parent="1" source="WlmM7-1C6_T7BSEHohl4-2" target="WlmM7-1C6_T7BSEHohl4-4">
          <mxGeometry relative="1" as="geometry" />
        </mxCell>
        <mxCell id="WlmM7-1C6_T7BSEHohl4-2" value="Bắt đầu" style="ellipse;whiteSpace=wrap;html=1;" vertex="1" parent="1">
          <mxGeometry x="215" y="30" width="120" height="80" as="geometry" />
        </mxCell>
        <mxCell id="WlmM7-1C6_T7BSEHohl4-3" value="" style="edgeStyle=orthogonalEdgeStyle;rounded=0;orthogonalLoop=1;jettySize=auto;html=1;" edge="1" parent="1" source="WlmM7-1C6_T7BSEHohl4-4" target="WlmM7-1C6_T7BSEHohl4-7">
          <mxGeometry relative="1" as="geometry" />
        </mxCell>
        <mxCell id="WlmM7-1C6_T7BSEHohl4-4" value="Nhập a, b, c" style="shape=parallelogram;perimeter=parallelogramPerimeter;whiteSpace=wrap;html=1;fixedSize=1;" vertex="1" parent="1">
          <mxGeometry x="215" y="150" width="120" height="60" as="geometry" />
        </mxCell>
        <mxCell id="WlmM7-1C6_T7BSEHohl4-5" value="" style="edgeStyle=orthogonalEdgeStyle;rounded=0;orthogonalLoop=1;jettySize=auto;html=1;" edge="1" parent="1" source="WlmM7-1C6_T7BSEHohl4-7" target="WlmM7-1C6_T7BSEHohl4-10">
          <mxGeometry relative="1" as="geometry" />
        </mxCell>
        <mxCell id="WlmM7-1C6_T7BSEHohl4-6" value="" style="edgeStyle=orthogonalEdgeStyle;rounded=0;orthogonalLoop=1;jettySize=auto;html=1;exitX=0.5;exitY=1;exitDx=0;exitDy=0;" edge="1" parent="1" source="WlmM7-1C6_T7BSEHohl4-10" target="WlmM7-1C6_T7BSEHohl4-18">
          <mxGeometry relative="1" as="geometry" />
        </mxCell>
        <mxCell id="WlmM7-1C6_T7BSEHohl4-30" value="" style="edgeStyle=orthogonalEdgeStyle;rounded=0;orthogonalLoop=1;jettySize=auto;html=1;" edge="1" parent="1" source="WlmM7-1C6_T7BSEHohl4-7" target="WlmM7-1C6_T7BSEHohl4-29">
          <mxGeometry relative="1" as="geometry" />
        </mxCell>
        <mxCell id="WlmM7-1C6_T7BSEHohl4-7" value="a == 0" style="rhombus;whiteSpace=wrap;html=1;" vertex="1" parent="1">
          <mxGeometry x="235" y="260" width="80" height="80" as="geometry" />
        </mxCell>
        <mxCell id="WlmM7-1C6_T7BSEHohl4-8" value="" style="edgeStyle=orthogonalEdgeStyle;rounded=0;orthogonalLoop=1;jettySize=auto;html=1;entryX=0;entryY=0.5;entryDx=0;entryDy=0;" edge="1" parent="1" source="WlmM7-1C6_T7BSEHohl4-10" target="WlmM7-1C6_T7BSEHohl4-22">
          <mxGeometry relative="1" as="geometry">
            <mxPoint x="550" y="300" as="targetPoint" />
          </mxGeometry>
        </mxCell>
        <mxCell id="WlmM7-1C6_T7BSEHohl4-9" value="" style="edgeStyle=orthogonalEdgeStyle;rounded=0;orthogonalLoop=1;jettySize=auto;html=1;exitX=0.5;exitY=1;exitDx=0;exitDy=0;" edge="1" parent="1" source="WlmM7-1C6_T7BSEHohl4-22" target="WlmM7-1C6_T7BSEHohl4-13">
          <mxGeometry relative="1" as="geometry">
            <mxPoint x="400" y="420" as="sourcePoint" />
          </mxGeometry>
        </mxCell>
        <mxCell id="WlmM7-1C6_T7BSEHohl4-10" value="b == 0" style="rhombus;whiteSpace=wrap;html=1;" vertex="1" parent="1">
          <mxGeometry x="395" y="260" width="80" height="80" as="geometry" />
        </mxCell>
        <mxCell id="WlmM7-1C6_T7BSEHohl4-11" value="Phương trình có vô số nghiệm" style="shape=parallelogram;perimeter=parallelogramPerimeter;whiteSpace=wrap;html=1;fixedSize=1;" vertex="1" parent="1">
          <mxGeometry x="667" y="255" width="160" height="90" as="geometry" />
        </mxCell>
        <mxCell id="WlmM7-1C6_T7BSEHohl4-12" value="True" style="text;html=1;align=center;verticalAlign=middle;resizable=0;points=[];autosize=1;strokeColor=none;fillColor=none;" vertex="1" parent="1">
          <mxGeometry x="475" y="280" width="40" height="20" as="geometry" />
        </mxCell>
        <mxCell id="WlmM7-1C6_T7BSEHohl4-13" value="Phương trình vô nghiệm" style="shape=parallelogram;perimeter=parallelogramPerimeter;whiteSpace=wrap;html=1;fixedSize=1;" vertex="1" parent="1">
          <mxGeometry x="525" y="440" width="130" height="80" as="geometry" />
        </mxCell>
        <mxCell id="WlmM7-1C6_T7BSEHohl4-14" value="False" style="text;html=1;align=center;verticalAlign=middle;resizable=0;points=[];autosize=1;strokeColor=none;fillColor=none;" vertex="1" parent="1">
          <mxGeometry x="450" y="360" width="40" height="20" as="geometry" />
        </mxCell>
        <mxCell id="WlmM7-1C6_T7BSEHohl4-15" value="True" style="text;html=1;align=center;verticalAlign=middle;resizable=0;points=[];autosize=1;strokeColor=none;fillColor=none;" vertex="1" parent="1">
          <mxGeometry x="315" y="280" width="40" height="20" as="geometry" />
        </mxCell>
        <mxCell id="WlmM7-1C6_T7BSEHohl4-16" value="False" style="text;html=1;align=center;verticalAlign=middle;resizable=0;points=[];autosize=1;strokeColor=none;fillColor=none;" vertex="1" parent="1">
          <mxGeometry x="600" y="360" width="40" height="20" as="geometry" />
        </mxCell>
        <mxCell id="WlmM7-1C6_T7BSEHohl4-17" value="" style="edgeStyle=orthogonalEdgeStyle;rounded=0;orthogonalLoop=1;jettySize=auto;html=1;" edge="1" parent="1" source="WlmM7-1C6_T7BSEHohl4-18" target="WlmM7-1C6_T7BSEHohl4-19">
          <mxGeometry relative="1" as="geometry">
            <Array as="points">
              <mxPoint x="435" y="560" />
              <mxPoint x="275" y="560" />
            </Array>
          </mxGeometry>
        </mxCell>
        <mxCell id="WlmM7-1C6_T7BSEHohl4-18" value="&lt;span&gt;Phương trình có một nghiệm là x = - b / a&lt;/span&gt;" style="shape=parallelogram;perimeter=parallelogramPerimeter;whiteSpace=wrap;html=1;fixedSize=1;" vertex="1" parent="1">
          <mxGeometry x="360" y="430" width="150" height="100" as="geometry" />
        </mxCell>
        <mxCell id="WlmM7-1C6_T7BSEHohl4-19" value="Kết thúc" style="ellipse;whiteSpace=wrap;html=1;" vertex="1" parent="1">
          <mxGeometry x="215" y="630" width="120" height="60" as="geometry" />
        </mxCell>
        <mxCell id="WlmM7-1C6_T7BSEHohl4-20" value="" style="endArrow=classic;html=1;exitX=0.5;exitY=1;exitDx=0;exitDy=0;entryX=1;entryY=0.5;entryDx=0;entryDy=0;" edge="1" parent="1" source="WlmM7-1C6_T7BSEHohl4-13" target="WlmM7-1C6_T7BSEHohl4-19">
          <mxGeometry width="50" height="50" relative="1" as="geometry">
            <mxPoint x="440" y="660" as="sourcePoint" />
            <mxPoint x="380" y="570" as="targetPoint" />
            <Array as="points">
              <mxPoint x="590" y="660" />
            </Array>
          </mxGeometry>
        </mxCell>
        <mxCell id="WlmM7-1C6_T7BSEHohl4-21" value="" style="endArrow=classic;html=1;exitX=0.5;exitY=1;exitDx=0;exitDy=0;entryX=1;entryY=0.5;entryDx=0;entryDy=0;" edge="1" parent="1" source="WlmM7-1C6_T7BSEHohl4-11" target="WlmM7-1C6_T7BSEHohl4-19">
          <mxGeometry width="50" height="50" relative="1" as="geometry">
            <mxPoint x="630" y="690" as="sourcePoint" />
            <mxPoint x="330" y="690" as="targetPoint" />
            <Array as="points">
              <mxPoint x="740" y="660" />
            </Array>
          </mxGeometry>
        </mxCell>
        <mxCell id="WlmM7-1C6_T7BSEHohl4-22" value="c == 0" style="rhombus;whiteSpace=wrap;html=1;" vertex="1" parent="1">
          <mxGeometry x="550" y="260" width="80" height="80" as="geometry" />
        </mxCell>
        <mxCell id="WlmM7-1C6_T7BSEHohl4-24" value="" style="endArrow=classic;html=1;exitX=1;exitY=0.5;exitDx=0;exitDy=0;entryX=0;entryY=0.5;entryDx=0;entryDy=0;" edge="1" parent="1" source="WlmM7-1C6_T7BSEHohl4-22" target="WlmM7-1C6_T7BSEHohl4-11">
          <mxGeometry width="50" height="50" relative="1" as="geometry">
            <mxPoint x="390" y="430" as="sourcePoint" />
            <mxPoint x="440" y="380" as="targetPoint" />
          </mxGeometry>
        </mxCell>
        <mxCell id="WlmM7-1C6_T7BSEHohl4-28" value="True" style="text;html=1;align=center;verticalAlign=middle;resizable=0;points=[];autosize=1;strokeColor=none;fillColor=none;" vertex="1" parent="1">
          <mxGeometry x="627" y="280" width="40" height="20" as="geometry" />
        </mxCell>
        <mxCell id="WlmM7-1C6_T7BSEHohl4-32" value="" style="edgeStyle=orthogonalEdgeStyle;rounded=0;orthogonalLoop=1;jettySize=auto;html=1;" edge="1" parent="1" source="WlmM7-1C6_T7BSEHohl4-29" target="WlmM7-1C6_T7BSEHohl4-31">
          <mxGeometry relative="1" as="geometry" />
        </mxCell>
        <mxCell id="WlmM7-1C6_T7BSEHohl4-29" value="d= b*b - 4*a*c" style="whiteSpace=wrap;html=1;" vertex="1" parent="1">
          <mxGeometry x="60" y="270" width="120" height="60" as="geometry" />
        </mxCell>
        <mxCell id="WlmM7-1C6_T7BSEHohl4-34" value="" style="edgeStyle=orthogonalEdgeStyle;rounded=0;orthogonalLoop=1;jettySize=auto;html=1;" edge="1" parent="1" source="WlmM7-1C6_T7BSEHohl4-31" target="WlmM7-1C6_T7BSEHohl4-33">
          <mxGeometry relative="1" as="geometry" />
        </mxCell>
        <mxCell id="WlmM7-1C6_T7BSEHohl4-31" value="d == 0" style="rhombus;whiteSpace=wrap;html=1;" vertex="1" parent="1">
          <mxGeometry x="-70" y="367.5" width="80" height="80" as="geometry" />
        </mxCell>
        <mxCell id="WlmM7-1C6_T7BSEHohl4-33" value="Phương trình có nghiệm kép là &lt;br&gt;x = -b/(a*2)" style="shape=parallelogram;perimeter=parallelogramPerimeter;whiteSpace=wrap;html=1;fixedSize=1;" vertex="1" parent="1">
          <mxGeometry x="85" y="365" width="225" height="85" as="geometry" />
        </mxCell>
        <mxCell id="WlmM7-1C6_T7BSEHohl4-35" value="True" style="text;html=1;align=center;verticalAlign=middle;resizable=0;points=[];autosize=1;strokeColor=none;fillColor=none;" vertex="1" parent="1">
          <mxGeometry x="10" y="365" width="40" height="20" as="geometry" />
        </mxCell>
        <mxCell id="WlmM7-1C6_T7BSEHohl4-36" value="False" style="text;html=1;align=center;verticalAlign=middle;resizable=0;points=[];autosize=1;strokeColor=none;fillColor=none;" vertex="1" parent="1">
          <mxGeometry x="195" y="280" width="40" height="20" as="geometry" />
        </mxCell>
      </root>
    </mxGraphModel>
  </diagram>
</mxfile>
